<svg xmlns="http://www.w3.org/2000/svg" viewBox="0 0 512 512" role="img" aria-labelledby="title desc">
  <title id="title">Logotipo Studio Brezer</title>
  <desc id="desc">Forma orgânica verde com letras brancas dizendo Brezer Studio</desc>
  <defs>
    <linearGradient id="brezer-blob" x1="0" y1="0" x2="1" y2="1">
      <stop offset="0" stop-color="#1fb5a5" />
      <stop offset="1" stop-color="#118779" />
    </linearGradient>
  </defs>
  <path fill="url(#brezer-blob)" d="M134.2 29.7C209.8-22.6 338.7-8.7 408.4 40c69.7 48.6 110.1 138.5 93.3 224.5-16.8 86-80.8 167.2-164 197.5-83.2 30.3-184.6 9.7-247.4-49.2C27.5 354-3.3 250 19.5 164.7c22.7-85.4 83.9-113 114.7-135z" />
  <g fill="#f8fffb">
    <path d="M128.6 145.1c0-21.3 15.7-36.1 37.9-36.1h76.1c32.5 0 55.9 20.7 55.9 51 0 19.2-8.6 33.6-23.4 42.8 19.3 7.6 30.3 22.5 30.3 43.5 0 33.5-25.9 55.8-63.6 55.8h-78.9c-21 0-34.3-13.9-34.3-33.6zm41.6 17.5v21.5c0 7.8 5.5 12.9 13.9 12.9h36.2c11.9 0 19.5-7.1 19.5-17.6s-7.6-16.8-19.5-16.8H184c-8.4 0-13.9 5.1-13.9 12.9zm3.5 70.3v22.5c0 7.8 5.5 12.9 13.9 12.9h38c12.7 0 20.5-7.4 20.5-18.4 0-11.1-7.8-17-20.5-17H184c-8.4 0-13.9 5.1-13.9 12.9z" />
    <path d="M317.1 111c25.7 0 46.7 17 46.7 45.2 0 17.6-8.8 30.5-22.1 37.3 16.6 6.1 27.5 20.4 27.5 38.7 0 31.5-25 52.6-57.1 52.6-31.2 0-57.7-19.6-57.7-52.6 0-18.3 10.8-32.6 27.5-38.7-13.3-6.8-22.1-19.7-22.1-37.3 0-28.2 21-45.2 46.7-45.2zm-13 61c0 11.3 8.1 18.3 18.6 18.3 10.4 0 18.4-7 18.4-18.3 0-11.1-8-18.4-18.4-18.4-10.5 0-18.6 7.3-18.6 18.4zm0 77.5c0 11.1 8.1 18.3 18.6 18.3 10.4 0 18.4-7.2 18.4-18.3 0-11.3-8-18.4-18.4-18.4-10.5 0-18.6 7-18.6 18.4z" />
    <path d="M123.9 327.6c0-23.6 18.6-40.7 44.1-40.7 17.8 0 31.5 8.2 38.5 21.8l-29.8 16.2c-2.9-5.4-7.2-8.4-13.2-8.4-8.1 0-13.9 5.7-13.9 14.5 0 8.6 5.6 14.7 13.9 14.7 6 0 10.1-2.9 13.2-8.2l29.8 16.1c-7 13.8-20.7 21.6-38.5 21.6-25.5-.1-44.1-17.2-44.1-40.6z" />
    <path d="M232.5 287.6h68.4c19.6 0 31.1 9.5 31.1 25.3 0 10.9-5.2 18.9-15.4 22.7 11.4 3.8 18.2 12 18.2 24.2 0 17-13.4 27.7-33.9 27.7h-68.4zm36 23.4v10.7h23.1c4.9 0 7.8-2.5 7.8-6.4 0-3.8-2.8-6.4-7.8-6.4zm0 37.4v11.1h24.5c5.1 0 8.1-2.5 8.1-6.6 0-4-3-6.6-8.1-6.6z" />
    <path d="M357.7 287.6h36.3v46.6L422 287.6h39l-33.5 43.1 34.7 54.4h-38.5l-18.6-30.4-11.1 14.3v16.1h-36.3z" />
  </g>
  <g fill="#f8fffb">
    <path d="M183.6 389.4c0-14 10.3-24.4 24.6-24.4 9.9 0 18 4.6 22.4 12.3l-13.6 7.4c-2.2-3.5-4.8-5.3-8.4-5.3-5.1 0-8.6 3.6-8.6 9s3.4 9.1 8.6 9.1c3.6 0 6.2-1.8 8.4-5.3l13.6 7.3c-4.4 7.8-12.5 12.4-22.4 12.4-14.3 0-24.6-10.5-24.6-24.5z" />
    <path d="M244.6 367h39.6c10.9 0 18.4 6.6 18.4 16.4 0 6.5-3.1 11.4-8.7 14.1l10.8 22.6h-23.9l-8.8-20.4h-4.9v20.4h-22.5zm22.5 13.7v6.8h10.5c2.7 0 4.4-1.4 4.4-3.4 0-2-1.7-3.4-4.4-3.4z" />
    <path d="M308.6 367h47.9v18h-25.5v4.4h24.3v16.2h-24.3v4.8h26.1v18.2h-48.5z" />
  </g>
</svg>
